<?xml version="1.0" encoding="utf-8"?>
<!-- Generator: Adobe Illustrator 17.0.2, SVG Export Plug-In . SVG Version: 6.00 Build 0)  -->
<!DOCTYPE svg PUBLIC "-//W3C//DTD SVG 1.1//EN" "http://www.w3.org/Graphics/SVG/1.1/DTD/svg11.dtd">
<svg version="1.1" id="Layer_2" xmlns="http://www.w3.org/2000/svg" xmlns:xlink="http://www.w3.org/1999/xlink" x="0px" y="0px"
	 width="457.5px" height="324.48px" viewBox="0 0 457.5 162.4" enable-background="new 0 0 457.5 162.4" xml:space="preserve">
<path fill="#8192A2" d="M457.5,5.6c0,3.1-3.5,5.6-7.9,5.6H7.9C3.5,11.2,0,8.7,0,5.6l0,0C0,2.5,3.5,0,7.9,0h441.7
	C454,0,457.5,2.5,457.5,5.6L457.5,5.6z"/>
<g>
	<polyline fill="none" stroke="#F2F2F2" stroke-width="2" stroke-miterlimit="10" points="441.7,161 437,157 432.3,161 427.6,157 
		423,161 418.3,157 413.6,161 408.9,157 404.2,161 399.6,157 394.9,161 390.2,157 385.5,161 380.9,157 376.2,161 371.5,157 
		366.8,161 362.2,157 357.5,161 352.8,157 348.1,161 343.4,157 338.8,161 334.1,157 329.4,161 324.7,157 320.1,161 315.4,157 
		310.7,161 306,157 301.3,161 296.7,157 292,161 287.3,157 282.6,161 278,157 273.3,161 268.6,157 263.9,161 259.2,157 254.6,161 
		249.9,157 245.2,161 240.5,157 235.8,161 231.2,157 226.5,161 221.8,157 217.1,161 212.4,157 207.8,161 203.1,157 198.4,161 
		193.7,157 189.1,161 184.4,157 179.7,161 175,157 170.4,161 165.7,157 161,161 156.3,157 151.6,161 147,157 142.3,161 137.6,157 
		132.9,161 128.2,157 123.6,161 118.9,157 114.2,161 109.5,157 104.8,161 100.2,157 95.5,161 90.8,157 86.1,161 81.4,157 76.8,161 
		72.1,157 67.4,161 62.7,157 58,161 53.4,157 48.7,161 44,157 39.3,161 34.6,157 29.9,161 25.2,157 20.6,161 15.9,157 	"/>
</g>
<line fill="none" stroke="#424242" stroke-width="3" stroke-miterlimit="10" x1="14.6" y1="5.6" x2="443.1" y2="5.6"/>
<polygon fill="#606060" points="441.7,8.2 443.1,7.1 441.7,7.1 "/>
<polygon fill="#606060" points="16,8.2 14.6,7.1 16,7.1 "/>
<rect x="15.9" y="5.6" fill="#F2F2F2" stroke="#F2F2F2" stroke-miterlimit="10" width="425.8" height="153.5"/>
</svg>
